<svg width="41" height="27" viewBox="0 0 41 27" fill="none" xmlns="http://www.w3.org/2000/svg">
<path d="M38.0003 26.8334H3.33366C1.86144 26.8334 0.666992 25.639 0.666992 24.1667V2.83341C0.666992 1.36119 1.86144 0.166748 3.33366 0.166748H38.0003C39.4725 0.166748 40.667 1.36119 40.667 2.83341V24.1667C40.667 25.639 39.4725 26.8334 38.0003 26.8334ZM20.4892 16.569L20.0903 19.069C20.9681 19.4445 21.9892 19.6634 23.0614 19.6634C23.147 19.6634 23.2314 19.6623 23.3159 19.659H23.3037C23.4014 19.6645 23.5148 19.6679 23.6303 19.6679C24.8625 19.6679 26.0048 19.2812 26.9426 18.6223L26.9237 18.6345C27.7748 18.0034 28.3214 17.0023 28.3214 15.8734C28.3214 15.8679 28.3214 15.8623 28.3214 15.8567V15.8579C28.3214 14.6356 27.5037 13.6201 25.8914 12.8356C25.4181 12.6045 25.0137 12.3623 24.6337 12.089L24.6592 12.1067C24.4392 11.9623 24.2925 11.7234 24.2781 11.449V11.4467C24.2959 11.1579 24.4614 10.9112 24.6992 10.7801L24.7037 10.7779C25.017 10.5956 25.3925 10.4879 25.7948 10.4879C25.8414 10.4879 25.8881 10.489 25.9348 10.4923H25.9281H26.017C26.0425 10.4923 26.0725 10.4912 26.1025 10.4912C26.8181 10.4912 27.497 10.6456 28.1092 10.9223L28.0781 10.9101L28.3381 11.049L28.737 8.63675C27.987 8.34008 27.117 8.16786 26.207 8.16786C26.1892 8.16786 26.1703 8.16786 26.1525 8.16786H26.1559C26.0848 8.16453 26.0014 8.1623 25.9181 8.1623C24.7003 8.1623 23.5714 8.54786 22.6481 9.20341L22.6659 9.19119C21.8303 9.78675 21.2914 10.7512 21.2914 11.8423V11.8479C21.2803 13.0234 22.127 14.039 23.8092 14.8701C24.2537 15.0645 24.637 15.3023 24.9803 15.5879L24.9725 15.5812C25.167 15.7456 25.2925 15.9867 25.3025 16.2567V16.259V16.2612C25.3025 16.6156 25.0914 16.9201 24.787 17.0567L24.7814 17.059C24.4481 17.2345 24.0525 17.3367 23.6325 17.3367C23.6159 17.3367 23.5981 17.3367 23.5814 17.3367H23.5837C23.5592 17.3367 23.5292 17.3367 23.5003 17.3367C22.5481 17.3367 21.6459 17.1256 20.837 16.7479L20.8759 16.7645L20.4948 16.5734L20.4892 16.569ZM31.7392 17.8367H35.4226C35.4818 18.0908 35.5977 18.6464 35.7703 19.5034H38.4448L36.1181 8.35786H33.8959C33.857 8.35453 33.8114 8.3523 33.7648 8.3523C33.1403 8.3523 32.6059 8.73897 32.3881 9.28564L32.3848 9.29564L28.1181 19.5034H31.1403L31.747 17.8379L31.7392 17.8367ZM17.2125 8.35786L15.4059 19.5034H18.2881L20.0937 8.35786H17.2125ZM6.13588 10.6323L8.48033 19.4856H11.5181L16.0459 8.35786H12.9948L10.1792 15.9623L9.88366 14.4167L8.87921 9.29564C8.7781 8.7523 8.3081 8.34564 7.74255 8.34564C7.68477 8.34564 7.62699 8.35008 7.57144 8.35786L7.5781 8.35675H2.92588L2.89144 8.5823C6.47366 9.4923 8.82699 11.4556 9.88699 14.4156C9.54366 13.5356 9.04255 12.7856 8.41366 12.1667L8.41255 12.1656C7.78255 11.519 7.02588 11.0001 6.18255 10.6456L6.1381 10.629L6.13588 10.6323ZM34.9548 15.5445H32.5548C32.717 15.1164 33.0992 14.0793 33.7014 12.4334L33.7525 12.2767C33.7992 12.1612 33.857 12.0101 33.9303 11.8256C34.0037 11.6412 34.0525 11.4901 34.0859 11.3745L34.2948 12.329L34.9537 15.5401L34.9548 15.5445Z" fill="white"/>
</svg>
